<?xml version="1.0" encoding="UTF-8" standalone="no"?>
<svg
   xmlns:dc="http://purl.org/dc/elements/1.1/"
   xmlns:cc="http://creativecommons.org/ns#"
   xmlns:rdf="http://www.w3.org/1999/02/22-rdf-syntax-ns#"
   xmlns:svg="http://www.w3.org/2000/svg"
   xmlns="http://www.w3.org/2000/svg"
   width="100"
   height="100"
   viewBox="0 0 100 100"
   id="svg2"
   version="1.1">
  <defs
     id="defs4" />
  <metadata
     id="metadata7">
    <rdf:RDF>
      <cc:Work
         rdf:about="">
        <dc:format>image/svg+xml</dc:format>
        <dc:type
           rdf:resource="http://purl.org/dc/dcmitype/StillImage" />
        <dc:title></dc:title>
      </cc:Work>
    </rdf:RDF>
  </metadata>
  <g
     id="layer1"
     transform="translate(-1.27635e-5,-952.36223)">
    <g
       id="g10"
       transform="matrix(1.059482,0,0,-1.0598666,-187.99103,1336.5803)">
      <g
         id="g12"
         transform="scale(0.1,0.1)">
        <path
           d="m 2117.01,2829.29 c 7.83,7.79 20.53,7.79 28.37,-0.03 7.81,-7.84 7.81,-20.5 -0.02,-28.34 -7.82,-7.82 -20.52,-7.82 -28.33,-0.02 -7.83,7.86 -7.83,20.57 -0.02,28.39"
           style="fill:#004964;fill-opacity:1;fill-rule:nonzero;stroke:none"
           id="path14" />
        <path
           d="m 2173.7,2885.98 c 7.85,7.8 20.51,7.8 28.37,-0.04 7.8,-7.82 7.8,-20.49 -0.02,-28.32 -7.84,-7.85 -20.5,-7.83 -28.34,-0.02 -7.84,7.85 -7.84,20.52 -0.01,28.38"
           style="fill:#004964;fill-opacity:1;fill-rule:nonzero;stroke:none"
           id="path16" />
        <path
           d="m 2173.71,2772.56 c 7.83,7.82 20.53,7.82 28.39,-0.03 7.79,-7.82 7.79,-20.47 -0.02,-28.3 -7.84,-7.83 -20.53,-7.83 -28.33,-0.02 -7.87,7.84 -7.89,20.54 -0.04,28.35"
           style="fill:#004964;fill-opacity:1;fill-rule:nonzero;stroke:none"
           id="path18" />
        <path
           d="m 2230.4,2829.26 c 7.85,7.82 20.53,7.82 28.37,-0.03 7.81,-7.83 7.81,-20.47 -0.02,-28.31 -7.82,-7.85 -20.5,-7.85 -28.34,-0.05 -7.82,7.86 -7.84,20.55 -0.01,28.39"
           style="fill:#004964;fill-opacity:1;fill-rule:nonzero;stroke:none"
           id="path20" />
        <path
           d="m 2230.41,2715.88 c 7.86,7.81 20.54,7.81 28.38,-0.03 7.82,-7.84 7.82,-20.5 -0.02,-28.34 -7.81,-7.83 -20.52,-7.82 -28.34,-0.01 -7.84,7.85 -7.84,20.53 -0.02,28.38"
           style="fill:#004964;fill-opacity:1;fill-rule:nonzero;stroke:none"
           id="path22" />
        <path
           d="m 2287.11,2772.56 c 7.84,7.82 20.52,7.82 28.36,-0.03 7.82,-7.82 7.82,-20.48 -0.04,-28.32 -7.8,-7.85 -20.48,-7.83 -28.32,-0.03 -7.82,7.85 -7.82,20.53 0,28.38"
           style="fill:#004964;fill-opacity:1;fill-rule:nonzero;stroke:none"
           id="path24" />
        <path
           d="m 2230.41,2942.71 c 7.84,7.77 20.54,7.77 28.38,-0.05 7.82,-7.86 7.8,-20.5 -0.02,-28.32 -7.82,-7.88 -20.52,-7.84 -28.34,-0.02 -7.84,7.82 -7.84,20.5 -0.02,28.39"
           style="fill:#004964;fill-opacity:1;fill-rule:nonzero;stroke:none"
           id="path26" />
        <path
           d="m 2287.11,2999.36 c 7.84,7.82 20.5,7.82 28.34,-0.04 7.84,-7.81 7.84,-20.47 -0.02,-28.29 -7.82,-7.85 -20.5,-7.85 -28.32,-0.03 -7.84,7.81 -7.84,20.53 0,28.36"
           style="fill:#004964;fill-opacity:1;fill-rule:nonzero;stroke:none"
           id="path28" />
        <path
           d="m 2287.11,2885.98 c 7.84,7.81 20.54,7.8 28.37,-0.04 7.84,-7.82 7.84,-20.48 -0.03,-28.3 -7.8,-7.85 -20.5,-7.85 -28.32,-0.04 -7.84,7.85 -7.84,20.54 -0.02,28.38"
           style="fill:#004964;fill-opacity:1;fill-rule:nonzero;stroke:none"
           id="path30" />
        <path
           d="m 2343.79,2942.67 c 7.87,7.81 20.55,7.81 28.39,-0.03 7.81,-7.84 7.81,-20.47 -0.04,-28.32 -7.8,-7.86 -20.48,-7.86 -28.32,-0.04 -7.84,7.85 -7.84,20.52 -0.03,28.39"
           style="fill:#004964;fill-opacity:1;fill-rule:nonzero;stroke:none"
           id="path32" />
        <path
           d="m 2343.82,2829.29 c 7.85,7.79 20.53,7.79 28.35,-0.04 7.83,-7.83 7.83,-20.49 0,-28.33 -7.79,-7.82 -20.52,-7.82 -28.33,-0.02 -7.84,7.86 -7.84,20.52 -0.02,28.39"
           style="fill:#004964;fill-opacity:1;fill-rule:nonzero;stroke:none"
           id="path34" />
        <path
           d="m 2400.51,2885.94 c 7.83,7.84 20.53,7.84 28.36,-0.01 7.8,-7.82 7.82,-20.48 -0.03,-28.33 -7.8,-7.83 -20.5,-7.83 -28.31,0 -7.82,7.82 -7.84,20.52 -0.02,28.34"
           style="fill:#004964;fill-opacity:1;fill-rule:nonzero;stroke:none"
           id="path36" />
        <path
           d="m 2343.79,3056.05 c 7.85,7.81 20.53,7.84 28.37,0 7.83,-7.85 7.83,-20.51 -0.02,-28.37 -7.82,-7.84 -20.5,-7.84 -28.33,0 -7.83,7.84 -7.83,20.53 -0.02,28.37"
           style="fill:#004964;fill-opacity:1;fill-rule:nonzero;stroke:none"
           id="path38" />
        <path
           d="m 2400.47,3112.73 c 7.85,7.83 20.55,7.83 28.37,-0.02 7.84,-7.83 7.84,-20.51 0,-28.33 -7.82,-7.85 -20.52,-7.81 -28.35,-0.02 -7.81,7.84 -7.81,20.52 -0.02,28.37"
           style="fill:#004964;fill-opacity:1;fill-rule:nonzero;stroke:none"
           id="path40" />
        <path
           d="m 2400.5,2999.36 c 7.84,7.79 20.52,7.79 28.37,-0.04 7.8,-7.83 7.8,-20.47 -0.03,-28.29 -7.82,-7.87 -20.5,-7.87 -28.33,-0.07 -7.82,7.85 -7.82,20.57 -0.01,28.4"
           style="fill:#004964;fill-opacity:1;fill-rule:nonzero;stroke:none"
           id="path42" />
        <path
           d="m 2457.18,3056.05 c 7.83,7.79 20.53,7.79 28.37,-0.03 7.83,-7.84 7.83,-20.5 0,-28.34 -7.84,-7.84 -20.54,-7.84 -28.35,-0.02 -7.83,7.84 -7.84,20.52 -0.02,28.39"
           style="fill:#004964;fill-opacity:1;fill-rule:nonzero;stroke:none"
           id="path44" />
        <path
           d="m 2457.2,2942.66 c 7.84,7.82 20.52,7.82 28.37,-0.02 7.81,-7.84 7.81,-20.51 -0.03,-28.34 -7.82,-7.84 -20.5,-7.84 -28.31,-0.04 -7.86,7.85 -7.86,20.54 -0.03,28.4"
           style="fill:#004964;fill-opacity:1;fill-rule:nonzero;stroke:none"
           id="path46" />
        <path
           d="m 2513.89,2999.32 c 7.84,7.82 20.52,7.82 28.37,-0.02 7.81,-7.82 7.81,-20.48 -0.02,-28.32 -7.83,-7.84 -20.51,-7.84 -28.32,-0.02 -7.86,7.84 -7.86,20.54 -0.03,28.36"
           style="fill:#004964;fill-opacity:1;fill-rule:nonzero;stroke:none"
           id="path48" />
        <path
           d="m 2457.2,3169.47 c 7.84,7.8 20.52,7.83 28.39,-0.02 7.79,-7.85 7.79,-20.5 -0.05,-28.33 -7.82,-7.85 -20.5,-7.85 -28.31,-0.04 -7.86,7.84 -7.86,20.54 -0.03,28.39"
           style="fill:#004964;fill-opacity:1;fill-rule:nonzero;stroke:none"
           id="path50" />
        <path
           d="m 2513.89,3226.16 c 7.84,7.8 20.52,7.8 28.37,-0.04 7.82,-7.83 7.82,-20.48 0,-28.31 -7.83,-7.83 -20.53,-7.83 -28.34,-0.02 -7.86,7.83 -7.86,20.5 -0.03,28.37"
           style="fill:#004964;fill-opacity:1;fill-rule:nonzero;stroke:none"
           id="path52" />
        <path
           d="m 2513.92,3112.77 c 7.83,7.82 20.51,7.8 28.36,-0.04 7.82,-7.85 7.82,-20.49 -0.02,-28.33 -7.83,-7.83 -20.51,-7.83 -28.34,-0.02 -7.82,7.86 -7.82,20.56 0,28.39"
           style="fill:#004964;fill-opacity:1;fill-rule:nonzero;stroke:none"
           id="path54" />
        <path
           d="m 2570.59,3169.45 c 7.84,7.82 20.54,7.8 28.37,-0.04 7.82,-7.83 7.82,-20.49 -0.02,-28.33 -7.81,-7.83 -20.51,-7.81 -28.33,-0.02 -7.83,7.86 -7.83,20.54 -0.02,28.39"
           style="fill:#004964;fill-opacity:1;fill-rule:nonzero;stroke:none"
           id="path56" />
        <path
           d="m 2570.61,3056.05 c 7.86,7.81 20.54,7.81 28.39,0 7.8,-7.87 7.8,-20.51 -0.04,-28.37 -7.81,-7.84 -20.49,-7.84 -28.34,0 -7.82,7.84 -7.82,20.53 -0.01,28.37"
           style="fill:#004964;fill-opacity:1;fill-rule:nonzero;stroke:none"
           id="path58" />
        <path
           d="m 2627.3,3112.73 c 7.84,7.83 20.54,7.83 28.36,-0.02 7.82,-7.83 7.82,-20.49 0,-28.33 -7.82,-7.81 -20.52,-7.81 -28.34,-0.02 -7.84,7.84 -7.84,20.52 -0.02,28.37"
           style="fill:#004964;fill-opacity:1;fill-rule:nonzero;stroke:none"
           id="path60" />
        <path
           d="m 2570.59,3282.86 c 7.84,7.79 20.52,7.81 28.37,-0.04 7.82,-7.85 7.82,-20.5 -0.02,-28.31 -7.83,-7.86 -20.53,-7.85 -28.33,-0.04 -7.85,7.85 -7.87,20.52 -0.02,28.39"
           style="fill:#004964;fill-opacity:1;fill-rule:nonzero;stroke:none"
           id="path62" />
        <path
           d="m 2627.27,3226.14 c 7.87,7.81 20.57,7.81 28.39,-0.02 7.82,-7.83 7.82,-20.5 -0.02,-28.31 -7.8,-7.85 -20.5,-7.85 -28.32,-0.04 -7.86,7.85 -7.86,20.52 -0.05,28.37"
           style="fill:#004964;fill-opacity:1;fill-rule:nonzero;stroke:none"
           id="path64" />
        <path
           d="m 2683.98,3169.45 c 7.85,7.8 20.56,7.8 28.39,-0.04 7.81,-7.83 7.81,-20.49 -0.02,-28.33 -7.81,-7.85 -20.52,-7.83 -28.33,-0.04 -7.85,7.88 -7.85,20.54 -0.04,28.41"
           style="fill:#004964;fill-opacity:1;fill-rule:nonzero;stroke:none"
           id="path66" />
        <path
           d="m 2343.82,3282.84 c 7.85,7.81 20.56,7.81 28.39,-0.02 7.81,-7.85 7.81,-20.5 -0.01,-28.33 -7.82,-7.84 -20.53,-7.84 -28.34,-0.02 -7.84,7.85 -7.86,20.5 -0.04,28.37"
           style="fill:#004964;fill-opacity:1;fill-rule:nonzero;stroke:none"
           id="path68" />
        <path
           d="m 2400.53,3226.14 c 7.85,7.81 20.55,7.81 28.39,-0.02 7.81,-7.83 7.81,-20.5 -0.02,-28.33 -7.82,-7.85 -20.52,-7.83 -28.31,-0.04 -7.86,7.84 -7.88,20.54 -0.06,28.39"
           style="fill:#004964;fill-opacity:1;fill-rule:nonzero;stroke:none"
           id="path70" />
        <path
           d="m 2457.23,3282.82 c 7.82,7.83 20.52,7.79 28.38,-0.03 7.81,-7.83 7.81,-20.5 -0.04,-28.32 -7.81,-7.87 -20.52,-7.82 -28.31,-0.04 -7.87,7.84 -7.87,20.54 -0.03,28.39"
           style="fill:#004964;fill-opacity:1;fill-rule:nonzero;stroke:none"
           id="path72" />
        <path
           d="m 2457.23,3396.21 c 7.82,7.83 20.5,7.83 28.36,-0.01 7.8,-7.85 7.8,-20.49 -0.02,-28.34 -7.84,-7.84 -20.52,-7.84 -28.34,-0.02 -7.84,7.83 -7.84,20.55 0,28.37"
           style="fill:#004964;fill-opacity:1;fill-rule:nonzero;stroke:none"
           id="path74" />
        <path
           d="m 2400.5,3452.93 c 7.84,7.84 20.52,7.84 28.37,0 7.8,-7.84 7.8,-20.5 -0.03,-28.34 -7.82,-7.84 -20.5,-7.82 -28.33,-0.02 -7.82,7.84 -7.84,20.54 -0.01,28.36"
           style="fill:#004964;fill-opacity:1;fill-rule:nonzero;stroke:none"
           id="path76" />
        <path
           d="m 2513.92,3339.53 c 7.85,7.83 20.53,7.79 28.38,-0.05 7.8,-7.84 7.8,-20.47 -0.02,-28.3 -7.83,-7.88 -20.51,-7.88 -28.34,-0.04 -7.84,7.82 -7.84,20.54 -0.02,28.39"
           style="fill:#004964;fill-opacity:1;fill-rule:nonzero;stroke:none"
           id="path78" />
        <path
           d="m 2202.38,3008.44 c 11.59,-11.57 11.59,-30.37 0,-41.93 l -104.8,-104.88 c -11.6,-11.55 -30.37,-11.55 -41.96,0.04 l -272.56,272.55 c -11.59,11.59 -11.59,30.34 0,41.95 L 1887.89,3281 c 11.57,11.58 30.36,11.58 41.93,0"
           style="fill:#b3cc95;fill-opacity:1;fill-rule:evenodd;stroke:none"
           id="path80" />
        <path
           d="m 2370.13,3511.66 c 11.6,-11.61 11.6,-30.39 0.02,-41.96 l -272.57,-272.56 c -11.6,-11.59 -30.37,-11.59 -41.96,0 l -104.83,104.82 c -11.59,11.58 -11.59,30.36 -0.02,41.95 l 272.6,272.57 c 11.59,11.57 30.35,11.57 41.94,-0.02"
           style="fill:#004964;fill-opacity:1;fill-rule:evenodd;stroke:none"
           id="path82" />
      </g>
    </g>
  </g>
</svg>
