<?xml version="1.0" encoding="UTF-8" standalone="no"?>
<svg
   xmlns:dc="http://purl.org/dc/elements/1.1/"
   xmlns:cc="http://creativecommons.org/ns#"
   xmlns:rdf="http://www.w3.org/1999/02/22-rdf-syntax-ns#"
   xmlns:svg="http://www.w3.org/2000/svg"
   xmlns="http://www.w3.org/2000/svg"
   id="svg2"
   version="1.1"
   x="0"
   y="0"
   width="420"
   height="500"
   viewBox="30.5 31.5 420 500"
   enable-background="new 30.5 31.5 412 533"
   xml:space="preserve"><metadata
     id="metadata4"><rdf:RDF><cc:Work
         rdf:about=""><dc:format>
          
          
          
          
          image/svg+xml
        
        
        
        
        </dc:format><dc:type
           rdf:resource="http://purl.org/dc/dcmitype/StillImage" /><dc:title></dc:title></cc:Work></rdf:RDF></metadata><defs
     id="defs6" /><path
     id="path4218"
     d="m 41,32.7 c -2.09,102.46 3.38,187.49 43.93,296.59 28.05,75.48 74.21,144.77 155.57,201.59 C 321.86,474.06 368.02,404.77 396.07,329.29 436.62,220.19 442.09,135.16 440,32.7 c -133,0.29 -266,0 -399,0 z"
     style="fill:#ffffff;fill-opacity:1;fill-rule:evenodd" /><path
     d="m 41,32.7 c -2.09,102.46 3.38,187.49 43.93,296.59 28.05,75.48 74.21,144.77 155.57,201.59 C 321.86,474.06 368.02,404.77 396.07,329.29 436.62,220.19 442.09,135.16 440,32.7 c -133,0.29 -266,0 -399,0 z"
     id="path4224"
     style="fill:#0085ca;stroke:#000000;fill-opacity:1" /><path
     style="fill:#ffffff;fill-rule:evenodd;stroke:#000000;stroke-width:1px;stroke-linecap:butt;stroke-linejoin:miter;stroke-opacity:1;fill-opacity:1"
     d="m 249.48465,437.53764 6.31798,-56.03764 48.69737,0 -23,-126 101,19 0,-111 -101,19 23,-116 -128,0 23,116 -101,-19 0,111 101,-19 -23,126 48.69737,0 6.31798,56.03764 c 1.69346,15.02018 3.98465,33.27192 8.98465,33.27192 5,0 7.29119,-18.25174 8.98465,-33.27192 z"
     id="path4216" /></svg>