<?xml version="1.0" encoding="UTF-8" standalone="no"?>
<svg
   xmlns:dc="http://purl.org/dc/elements/1.1/"
   xmlns:cc="http://creativecommons.org/ns#"
   xmlns:rdf="http://www.w3.org/1999/02/22-rdf-syntax-ns#"
   xmlns:svg="http://www.w3.org/2000/svg"
   xmlns="http://www.w3.org/2000/svg"
   xml:space="preserve"
   enable-background="new 30.5 31.5 412 533"
   viewBox="30.5 31.5 420 500"
   height="500"
   width="420"
   y="0"
   x="0"
   version="1.1"
   id="svg2"><metadata
     id="metadata4"><rdf:RDF><cc:Work
         rdf:about=""><dc:format>
          
          
          
          
          image/svg+xml
        
        
        
        
        </dc:format><dc:type
           rdf:resource="http://purl.org/dc/dcmitype/StillImage" /><dc:title></dc:title></cc:Work></rdf:RDF></metadata><defs
     id="defs6" /><path
     style="fill:#ffffff;fill-opacity:1;fill-rule:evenodd"
     d="m 41,32.7 c -2.09,102.46 3.38,187.49 43.93,296.59 28.05,75.48 74.21,144.77 155.57,201.59 C 321.86,474.06 368.02,404.77 396.07,329.29 436.62,220.19 442.09,135.16 440,32.7 c -133,0.29 -266,0 -399,0 z"
     id="path4218" /><path
     style="fill:#0085ca;stroke:#000000;fill-opacity:1"
     id="path4224"
     d="m 41,32.7 c -2.09,102.46 3.38,187.49 43.93,296.59 28.05,75.48 74.21,144.77 155.57,201.59 C 321.86,474.06 368.02,404.77 396.07,329.29 436.62,220.19 442.09,135.16 440,32.7 c -133,0.29 -266,0 -399,0 z" /><path
     id="path4544"
     d="M 253.93721,253.14595 C 294.53123,246.0499 323.5,210.40275 323.5,171.42867 l 0,-72.28182 -50.63497,0 0,-8 50.63497,0 0,-38.64685 c 2.66667,0 5.33333,0 8,0 l 0,38.64685 50.63497,0 0,8 -50.63497,0 0,72.28182 c 0,38.97408 28.96877,74.62123 69.56279,81.71728 -2.99933,36.36841 -28.91066,70.27067 -73.56279,71.69085 -44.65213,-1.42018 -70.56346,-35.32244 -73.56279,-71.69085 z"
     style="fill:#ffe000;fill-rule:evenodd;stroke:#000000;stroke-width:1px;stroke-linecap:butt;stroke-linejoin:miter;stroke-opacity:1;fill-opacity:1" /><path
     style="fill:#ffe000;fill-rule:evenodd;stroke:#000000;stroke-width:1px;stroke-linecap:butt;stroke-linejoin:miter;stroke-opacity:1;fill-opacity:1"
     d="m 244.5,132.85315 0,38.64685 50.63497,0 0,8 -50.63497,0 0,72.28182 c 0,38.97408 28.96877,74.62123 69.56279,81.71728 C 311.06346,369.86751 285.15213,403.76977 240.5,405.18995 195.84787,403.76977 169.93654,369.86751 166.93721,333.4991 207.53123,326.40305 236.5,290.7559 236.5,251.78182 l 0,-72.28182 -50.63497,0 0,-8 50.63497,0 0,-38.64685 c 2.66667,0 5.33333,0 8,0 z"
     id="path4546" /><path
     style="fill:#ffe000;fill-rule:evenodd;stroke:#000000;stroke-width:1px;stroke-linecap:butt;stroke-linejoin:miter;stroke-opacity:1;fill-opacity:1"
     d="M 227.06279,253.14595 C 186.46877,246.0499 157.5,210.40275 157.5,171.42867 l 0,-72.28182 50.63497,0 0,-8 -50.63497,0 0,-38.64685 c -2.66667,0 -5.33333,0 -8,0 l 0,38.64685 -50.63497,0 0,8 50.63497,0 0,72.28182 c 0,38.97408 -28.96877,74.62123 -69.56279,81.71728 2.99933,36.36841 28.91066,70.27067 73.56279,71.69085 44.65213,-1.42018 70.56346,-35.32244 73.56279,-71.69085 z"
     id="path4550" /></svg>