<?xml version="1.0" encoding="UTF-8" standalone="no"?>
<svg
   xmlns:dc="http://purl.org/dc/elements/1.1/"
   xmlns:cc="http://creativecommons.org/ns#"
   xmlns:rdf="http://www.w3.org/1999/02/22-rdf-syntax-ns#"
   xmlns:svg="http://www.w3.org/2000/svg"
   xmlns="http://www.w3.org/2000/svg"
   id="svg2"
   version="1.1"
   x="0"
   y="0"
   width="420"
   height="500"
   viewBox="30.5 31.5 420 500"
   enable-background="new 30.5 31.5 412 533"
   xml:space="preserve"><metadata
     id="metadata4"><rdf:RDF><cc:Work
         rdf:about=""><dc:format>
          
          
          
          
          image/svg+xml
        
        
        
        
        </dc:format><dc:type
           rdf:resource="http://purl.org/dc/dcmitype/StillImage" /><dc:title></dc:title></cc:Work></rdf:RDF></metadata><defs
     id="defs6" /><path
     d="m 41,32.7 c -2.09,102.46 3.38,187.49 43.93,296.59 28.05,75.48 74.21,144.77 155.57,201.59 C 321.86,474.06 368.02,404.77 396.07,329.29 436.62,220.19 442.09,135.16 440,32.7 c -133,0.29 -266,0 -399,0 z"
     id="path4224"
     style="fill:#ffe000;fill-opacity:1;stroke:none" /><path
     id="path4218"
     d="m 41,32.7 c -2.09,102.46 3.38,187.49 43.93,296.59 28.05,75.48 74.21,144.77 155.57,201.59 C 321.86,474.06 368.02,404.77 396.07,329.29 436.62,220.19 442.09,135.16 440,32.7 c -133,0.29 -266,0 -399,0 z"
     style="fill:none;fill-opacity:1;fill-rule:evenodd;stroke:#000000;stroke-opacity:1" /><path
     id="path4469"
     d="m 154.93352,384.66849 11.7684,8.48272 173.41175,-240.88944 c 6.14794,4.96032 9.20043,5.68786 10.4558,11.52952 2.19641,10.2206 -0.7191,16.05627 -7.99121,26.05542 l -12.32294,16.94403 c 12.76105,2.23902 26.05454,2.04578 39.12531,-3.38881 31.89252,-13.26034 39.7861,-42.61543 42.82219,-69.62456 1.26534,-11.25648 -3.46982,-21.22248 -8.62605,-30.80733 -4.09447,6.98261 -5.93364,12.1756 -14.17137,23.10549 -7.24274,9.60974 -11.66283,13.63847 -22.48935,14.47945 -4.84791,0.37658 -9.97973,-1.23489 -14.47945,-4.92917 12.32955,-17.22953 27.2199,-35.31395 29.75318,-53.581889 -13.76276,4.858738 -27.68301,26.959069 -41.41652,44.591399 l -3.12418,-2.40823 -12.21401,17.57887 2.97181,2.13783 z"
     style="fill:#e00e00;fill-opacity:1;fill-rule:evenodd;stroke:#000000;stroke-width:1px;stroke-linecap:butt;stroke-linejoin:miter;stroke-opacity:1" /><path
     id="path4471"
     d="m 328.40688,143.94379 11.70679,8.31798"
     style="fill:none;fill-rule:evenodd;stroke:#000000;stroke-width:1px;stroke-linecap:butt;stroke-linejoin:miter;stroke-opacity:1" /><path
     id="path4473"
     d="m 340.77326,126.63532 11.66334,8.99049"
     style="fill:none;fill-rule:evenodd;stroke:#000000;stroke-width:1px;stroke-linecap:butt;stroke-linejoin:miter;stroke-opacity:1" /><path
     style="fill:#e00e00;fill-opacity:1;fill-rule:evenodd;stroke:#000000;stroke-width:1px;stroke-linecap:butt;stroke-linejoin:miter;stroke-opacity:1"
     d="m 326.19126,384.65234 -11.7684,8.48272 -173.41175,-240.88944 c -6.14794,4.96032 -9.20043,5.68786 -10.4558,11.52952 -2.19641,10.2206 0.7191,16.05627 7.99121,26.05542 l 12.32294,16.94403 c -12.76105,2.23902 -26.05454,2.04578 -39.12531,-3.38881 -31.89252,-13.26034 -39.7861,-42.61543 -42.82219,-69.62456 -1.26534,-11.25648 3.46982,-21.22248 8.62605,-30.80733 4.09447,6.98261 5.93364,12.1756 14.17137,23.10549 7.24274,9.60974 11.66283,13.63847 22.48935,14.47945 4.84791,0.37658 9.97973,-1.23489 14.47945,-4.92917 -12.32955,-17.22953 -27.2199,-35.31395 -29.75318,-53.58189 13.76276,4.858738 27.68301,26.95907 41.41652,44.5914 l 3.12418,-2.40823 12.21401,17.57887 -2.97181,2.13783 z"
     id="path4485" /><path
     style="fill:none;fill-rule:evenodd;stroke:#000000;stroke-width:1px;stroke-linecap:butt;stroke-linejoin:miter;stroke-opacity:1"
     d="m 152.7179,143.92764 -11.70679,8.31798"
     id="path4487" /><path
     style="fill:none;fill-rule:evenodd;stroke:#000000;stroke-width:1px;stroke-linecap:butt;stroke-linejoin:miter;stroke-opacity:1"
     d="m 140.35152,126.61917 -11.66334,8.99049"
     id="path4489" /><path
     style="fill:#e00e00;fill-opacity:1;fill-rule:evenodd;stroke:#000000;stroke-width:1px;stroke-linecap:butt;stroke-linejoin:miter;stroke-opacity:1"
     d="M 231.72714,483.04612 233,127.5 l -30,0 0,17.5 -15,0 0,-17.5 -17.5,0 0,-15 17.5,0 0,-17.5 15,0 0,17.5 30,0 0,-30 -17.5,0 0,-15 17.5,0 0,-17.5 7.5,0 7.5,0 0,17.5 17.5,0 0,15 -17.5,0 0,30 30,0 0,-17.5 15,0 0,17.5 17.5,0 0,15 -17.5,0 0,17.5 -15,0 0,-17.5 -30,0 1.27286,355.54612"
     id="path4361" /></svg>