<svg xmlns:dc="http://purl.org/dc/elements/1.1/" xmlns:cc="http://creativecommons.org/ns#" xmlns:rdf="http://www.w3.org/1999/02/22-rdf-syntax-ns#" xmlns:svg="http://www.w3.org/2000/svg" xmlns="http://www.w3.org/2000/svg" xml:space="preserve" enable-background="new 30.5 31.5 412 533" viewBox="30.5 31.5 400 500" height="500" width="400" y="0" x="0" version="1.1" id="svg2">
  <metadata id="metadata4">
    <rdf:RDF>
      <cc:Work rdf:about="">
        <dc:format>
          
          
          
          image/svg+xml
        
        
        
        </dc:format>
        <dc:type rdf:resource="http://purl.org/dc/dcmitype/StillImage"/>
      </cc:Work>
    </rdf:RDF>
  </metadata>
  <defs id="defs6"/>
  <path d="M230.56 531.14C304.88 477.22 355.82 409.12 386.3 322.98 413.94 244.88 425.03 150.23 420.21 33.63l-0.02-0.46-379.82 0-0.02 0.46c-4.81 116.6 6.28 211.24 33.91 289.35 30.48 86.14 81.42 154.24 155.74 208.16l0.28 0.2 0.28-0.2z" id="path8" fill="#32ac60"/>
  <path d="M41.04 33.21C31.97 252.66 77.3 419.16 230.5 530.31 383.69 419.16 429.01 252.66 419.94 33.21l-189.45 0-189.45 0m-0.92-0.95 0.92 0 189.45 0 189.45 0 0.92 0 0.04 0.92c4.82 116.66-6.28 211.36-33.93 289.52-30.51 86.24-81.51 154.41-155.91 208.39l-0.56 0.41-0.56-0.41C155.54 477.11 104.54 408.94 74.03 322.7 46.38 244.54 35.28 149.84 40.1 33.18l0.04-0.92 0 0z" id="path10"/>
  <ellipse transform="scale(-1,1)" ry="88.87" rx="95.4" cy="208.26" cx="-260.17" id="path4205" fill="none"/>
  <circle transform="scale(-1,1)" r="134.94" cy="220.46" cx="-230.5" id="path4207" style="fill:#fff;stroke-linecap:round;stroke-linejoin:round;stroke-miterlimit:4;stroke:#000"/>
  <circle transform="scale(-1,1)" id="circle4211" cx="-230.5" cy="220.46" r="116.01" style="fill:#32ac60;stroke-linecap:round;stroke-linejoin:round;stroke-miterlimit:4;stroke:#000"/>
  <path d="m360.43 201.13c14.18-4.89 20.52-23.72 9.1-36.59 12.43-4.84 17.14-18.2 13.38-29.1-4.89-14.18-23.72-20.52-36.38-9.06-4.63-12.38-18-17.1-28.9-13.34-14.18 4.89-20.52 23.72-9.13 36.41-12.45 4.66-17.17 18.02-13.41 28.92 4.89 14.18 23.72 20.52 36.41 9.24 4.66 12.56 18.02 17.28 28.92 13.52z" id="path4227" style="fill-rule:evenodd;fill:#fff;stroke:#000"/>
  <path id="path4237" d="M100.57 201.13C86.4 196.24 80.06 177.41 91.47 164.54 79.05 159.7 74.33 146.34 78.09 135.44c4.89-14.18 23.72-20.52 36.38-9.06 4.63-12.38 18-17.1 28.9-13.34 14.18 4.89 20.52 23.72 9.13 36.41 12.45 4.66 17.17 18.02 13.41 28.92-4.89 14.18-23.72 20.52-36.41 9.24-4.66 12.56-18.02 17.28-28.92 13.52z" style="fill-rule:evenodd;fill:#fff;stroke:#000"/>
  <path d="m230.5 301c12.25 0 24.19 10.81 21 26.5 15.69-3.19 26.5 8.75 26.5 21 0 12.25-10.81 24.19-26.5 20.75 3.19 15.44-8.75 26.25-21 26.25-12.25 0-24.19-10.81-21-26.25-15.69 3.44-26.5-8.5-26.5-20.75 0-12.25 10.81-24.19 26.5-21-3.19-15.69 8.75-26.5 21-26.5z" id="path4251" style="fill-rule:evenodd;fill:#fff;stroke:#000"/>
</svg>
