<?xml version="1.0" encoding="UTF-8" standalone="no"?>
<svg
   xmlns:dc="http://purl.org/dc/elements/1.1/"
   xmlns:cc="http://creativecommons.org/ns#"
   xmlns:rdf="http://www.w3.org/1999/02/22-rdf-syntax-ns#"
   xmlns:svg="http://www.w3.org/2000/svg"
   xmlns="http://www.w3.org/2000/svg"
   id="svg2"
   version="1.1"
   x="0"
   y="0"
   width="420"
   height="500"
   viewBox="30.5 31.5 420 500"
   enable-background="new 30.5 31.5 412 533"
   xml:space="preserve"><metadata
     id="metadata4"><rdf:RDF><cc:Work
         rdf:about=""><dc:format>
          
          
          
          
          image/svg+xml
        
        
        
        
        </dc:format><dc:type
           rdf:resource="http://purl.org/dc/dcmitype/StillImage" /><dc:title></dc:title></cc:Work></rdf:RDF></metadata><defs
     id="defs6" /><path
     id="path4218"
     d="m 41,32.7 c -2.09,102.46 3.38,187.49 43.93,296.59 28.05,75.48 74.21,144.77 155.57,201.59 C 321.86,474.06 368.02,404.77 396.07,329.29 436.62,220.19 442.09,135.16 440,32.7 c -133,0.29 -266,0 -399,0 z"
     style="fill:#ffffff;fill-opacity:1;fill-rule:evenodd;stroke:none;stroke-opacity:1" /><path
     style="fill:#ffe000;fill-rule:evenodd;stroke:none;stroke-width:1px;stroke-linecap:butt;stroke-linejoin:miter;stroke-opacity:1;fill-opacity:1"
     d="m 280.5,499.66783 c -19.3301,-60.69316 -26,-128.5472 -26,-250.16783 68.99103,0 123.13928,0 159.06851,27 8.60187,-28.47786 13.86133,-56.75184 18.69753,-85 -54.43123,35.08856 -108.77501,30 -177.76604,30 0,-108.87932 14.5338,-140.838953 26,-188.8 l -40,0 -40,0 c 11.4662,47.961047 26,79.92068 26,188.8 -68.99103,0 -123.33481,5.08856 -177.76604,-30 4.83621,28.24816 10.09567,56.52214 18.69753,85 35.92923,-27 90.07748,-27 159.06851,-27 0,121.62063 -6.6699,189.47467 -26,250.16783 12.38948,10.40406 25.54902,20.80811 40,31.21217 14.45098,-10.40406 27.61052,-20.80811 40,-31.21217 z"
     id="path4601" /><path
     id="path4603"
     d="m 200.5,32.7 c 11.4662,47.961047 26,79.92068 26,188.8 -68.99103,0 -123.33481,5.08856 -177.76604,-30 m 18.69753,85 c 35.92923,-27 90.07748,-27 159.06851,-27 0,121.62063 -6.6699,189.47467 -26,250.16783 m 80,0 c -19.3301,-60.69316 -26,-128.5472 -26,-250.16783 68.99103,0 123.13928,0 159.06851,27 m 18.69753,-85 c -54.43123,35.08856 -108.77501,30 -177.76604,30 0,-108.87932 14.5338,-140.838953 26,-188.8"
     style="fill:none;fill-opacity:1;fill-rule:evenodd;stroke:#000000;stroke-width:1px;stroke-linecap:butt;stroke-linejoin:miter;stroke-opacity:1" /><path
     style="fill:none;fill-opacity:1;fill-rule:evenodd;stroke:#000000;stroke-opacity:1"
     d="m 41,32.7 c -2.09,102.46 3.38,187.49 43.93,296.59 28.05,75.48 74.21,144.77 155.57,201.59 C 321.86,474.06 368.02,404.77 396.07,329.29 436.62,220.19 442.09,135.16 440,32.7 c -133,0.29 -266,0 -399,0 z"
     id="path4605" /></svg>